<svg xmlns="http://www.w3.org/2000/svg" width="48" height="48" viewBox="0 0 48 48">
  <defs>
    <linearGradient id="bg" x1="0" y1="0" x2="1" y2="1">
      <stop offset="0%" stop-color="#0B1120" />
      <stop offset="100%" stop-color="#0EA5A4" />
    </linearGradient>
  </defs>
  <rect x="2" y="2" width="44" height="44" rx="12" fill="url(#bg)" />
  <circle cx="14" cy="12" r="16" fill="#FFFFFF" opacity="0.12" />
  <path d="M24 12C20 12 16.6 13 13.6 14.3V24.4C13.6 30.2 17.8 34.4 24 37.2C30.2 34.4 34.4 30.2 34.4 24.4V14.3C31.4 13 28 12 24 12Z" fill="#FFFFFF" opacity="0.96" />
  <path d="M24 20.6C20.6 20.6 17.8 22.2 16 24.8C17.8 27.4 20.6 29 24 29C27.4 29 30.2 27.4 32 24.8C30.2 22.2 27.4 20.6 24 20.6Z" fill="#0B1120" opacity="0.9" />
  <circle cx="24" cy="24.8" r="2.2" fill="#0EA5A4" />
</svg>
